<?xml version="1.0" encoding="UTF-8"?>
<!DOCTYPE svg PUBLIC "-//W3C//DTD SVG 1.1//EN" "http://www.w3.org/Graphics/SVG/1.1/DTD/svg11.dtd">
<!-- Creator: CorelDRAW 2021 (64-Bit) -->
<svg xmlns="http://www.w3.org/2000/svg" xml:space="preserve" width="58px" height="82px" version="1.1" style="shape-rendering:geometricPrecision; text-rendering:geometricPrecision; image-rendering:optimizeQuality; fill-rule:evenodd; clip-rule:evenodd"
viewBox="0 0 58 82.03"
 xmlns:xlink="http://www.w3.org/1999/xlink"
 xmlns:xodm="http://www.corel.com/coreldraw/odm/2003">
 <defs>
    <clipPath id="id0">
     <rect x="8.16" y="35.88" width="18.76" height="18.8"/>
    </clipPath>
    <clipPath id="id1">
     <rect x="31.76" y="35.75" width="18.76" height="18.8"/>
    </clipPath>
    <clipPath id="id2">
     <path d="M31.76 54.55l18.76 0 0 -18.8 -18.76 0 0 18.8z"/>
    </clipPath>
    <clipPath id="id3">
     <rect x="31.76" y="35.75" width="18.76" height="18.8"/>
    </clipPath>
    <clipPath id="id4">
     <path d="M23.48 41.73l-1.1 -0.57 -0.04 -0.02 -0.21 -0.11 -2.27 -1.17 0 -16.93 18.76 0 0 18.8 -15.1 0 -0.04 0z"/>
    </clipPath>
    <clipPath id="id5">
     <path d="M23.48 41.73l15.14 0 0 -18.8 -18.76 0 0 16.93 2.27 1.17 0.21 0.11 0.04 0.02 1.1 0.57z"/>
    </clipPath>
    <clipPath id="id6">
     <path d="M23.48 41.73l-1.1 -0.57 -0.04 -0.02 -0.21 -0.11 -2.27 -1.17 0 -16.93 18.76 0 0 18.8 -15.1 0 -0.04 0z"/>
    </clipPath>
    <clipPath id="id7">
     <path d="M22.29 41.73l0.09 -0.57 1.1 0.57 -1.19 0z"/>
    </clipPath>
    <clipPath id="id8">
     <path d="M22.29 41.73l1.19 0 -1.1 -0.57 -0.09 0.57z"/>
    </clipPath>
    <clipPath id="id9">
     <path d="M22.29 41.73l0.09 -0.57 1.1 0.57 -1.19 0z"/>
    </clipPath>
    <clipPath id="id10">
     <path d="M21.87 41.73l0.47 -0.59 0.04 0.02 -0.09 0.57 -0.42 0z"/>
    </clipPath>
    <clipPath id="id11">
     <path d="M21.87 41.73l0.42 0 0.09 -0.57 -0.04 -0.02 -0.47 0.59z"/>
    </clipPath>
    <clipPath id="id12">
     <path d="M21.87 41.73l0.47 -0.59 0.04 0.02 -0.09 0.57 -0.42 0z"/>
    </clipPath>
    <clipPath id="id13">
     <path d="M22.13 41.03l-0.65 0.7 -1.62 0 0 -1.87 2.27 1.17z"/>
    </clipPath>
    <clipPath id="id14">
     <path d="M19.86 41.73l1.62 0 0.65 -0.7 -2.27 -1.17 0 1.87z"/>
    </clipPath>
    <clipPath id="id15">
     <path d="M22.13 41.03l-0.65 0.7 -1.62 0 0 -1.87 2.27 1.17z"/>
    </clipPath>
    <clipPath id="id16">
     <path d="M22.13 41.03l-0.65 0.7 0.39 0 0.47 -0.59 -0.21 -0.11z"/>
    </clipPath>
    <clipPath id="id17">
     <path d="M21.48 41.73l0.39 0 0.47 -0.59 -0.21 -0.11 -0.65 0.7z"/>
    </clipPath>
    <clipPath id="id18">
     <path d="M22.13 41.03l-0.65 0.7 0.39 0 0.47 -0.59 -0.21 -0.11z"/>
    </clipPath>
 </defs>
 <g id="Layer_x0020_1">
  <metadata id="CorelCorpID_0Corel-Layer"/>
  <g id="_3122231681248">
   <g style="clip-path:url(#id0)">
    <image x="8.16" y="35.88" width="18.76" height="18.8" xlink:href="Icodusun_Images\Icodusun_ImgID1.png"/>
   </g>
   <g style="clip-path:url(#id1)">
   </g>
   <g style="clip-path:url(#id2)">
    <image x="31.76" y="35.75" width="18.76" height="18.8" xlink:href="Icodusun_Images\Icodusun_ImgID2.png"/>
   </g>
   <g style="clip-path:url(#id3)">
   </g>
   <g style="clip-path:url(#id4)">
   </g>
   <g style="clip-path:url(#id5)">
    <image x="19.86" y="22.93" width="18.76" height="18.8" xlink:href="Icodusun_Images\Icodusun_ImgID3.png"/>
   </g>
   <g style="clip-path:url(#id6)">
   </g>
   <g style="clip-path:url(#id7)">
   </g>
   <g style="clip-path:url(#id8)">
    <image x="19.86" y="22.93" width="18.76" height="18.8" xlink:href="Icodusun_Images\Icodusun_ImgID4.png"/>
   </g>
   <g style="clip-path:url(#id9)">
   </g>
   <g style="clip-path:url(#id10)">
   </g>
   <g style="clip-path:url(#id11)">
    <image x="19.86" y="22.93" width="18.76" height="18.8" xlink:href="Icodusun_Images\Icodusun_ImgID5.png"/>
   </g>
   <g style="clip-path:url(#id12)">
   </g>
   <g style="clip-path:url(#id13)">
   </g>
   <g style="clip-path:url(#id14)">
    <image x="19.86" y="22.93" width="18.76" height="18.8" xlink:href="Icodusun_Images\Icodusun_ImgID6.png"/>
   </g>
   <g style="clip-path:url(#id15)">
   </g>
   <g style="clip-path:url(#id16)">
   </g>
   <g style="clip-path:url(#id17)">
    <image x="19.86" y="22.93" width="18.76" height="18.8" xlink:href="Icodusun_Images\Icodusun_ImgID7.png"/>
   </g>
   <g style="clip-path:url(#id18)">
   </g>
  </g>
 </g>
</svg>
